<svg id="Layer_1" data-name="Layer 1" xmlns="http://www.w3.org/2000/svg" width="44" height="56" viewBox="0 0 44 56">
  <defs>
    <style>
      .cls-1 {
        fill: #231f20;
      }

      .cls-2 {
        fill: #fff;
      }
    </style>
  </defs>
  <title>Vector Smart Object7</title>
  <g>
    <g id="_Group_" data-name="&lt;Group&gt;">
      <path class="cls-1" d="M22,48.625A20.625,20.625,0,1,1,42.625,28,20.648,20.648,0,0,1,22,48.625Z"/>
      <path class="cls-1" d="M22,7.75A20.25,20.25,0,1,1,1.75,28,20.273,20.273,0,0,1,22,7.75M22,7A21,21,0,1,0,43,28,21,21,0,0,0,22,7h0Z"/>
    </g>
    <g id="_Group_2" data-name="&lt;Group&gt;">
      <path class="cls-2" d="M22.088,30.685a0.75,0.75,0,0,0-.727-0.935H16.449L24.26,17.166,21.915,25.31a0.749,0.749,0,0,0,.725.94h4.917l-7.64,12.63Z"/>
      <path class="cls-2" d="M23.52,18.832l-1.85,6.426a1,1,0,0,0,.97,1.242h4.473L20.6,37.259l1.728-6.519a1,1,0,0,0-.971-1.24H16.9L23.52,18.832M25,15.5L16,30h5.362a0.5,0.5,0,0,1,.485.62L19.228,40.5,28,26H22.64a0.5,0.5,0,0,1-.485-0.621L25,15.5h0ZM28,26h0Z"/>
    </g>
  </g>
</svg>
