<svg id="Layer_1" data-name="Layer 1" xmlns="http://www.w3.org/2000/svg" width="40" height="56" viewBox="0 0 40 56">
  <defs>
    <style>
      .cls-1 {
        fill: #231f20;
      }
    </style>
  </defs>
  <title>Vector Smart Object10</title>
  <path id="_Path_" data-name="&lt;Path&gt;" class="cls-1" d="M15.165,38.711l4.313-8.792a0.248,0.248,0,0,0-.208-0.362H13.205a0.247,0.247,0,0,1-.217-0.343L20.713,8.653A0.235,0.235,0,0,1,20.93,8.5h6.335a0.248,0.248,0,0,1,.207.365L19.283,24.972a0.248,0.248,0,0,0,.207.365h7.036a0.249,0.249,0,0,1,.192.391L17.482,40.116l3,0.614a0.252,0.252,0,0,1,.123.442L12.88,47.446a0.235,0.235,0,0,1-.378-0.22V36.75a0.232,0.232,0,0,1,.406-0.142Z"/>
</svg>
